<svg xmlns="http://www.w3.org/2000/svg" xmlns:xlink="http://www.w3.org/1999/xlink" width="23.125" height="19.91" viewBox="0 0 23.125 19.91">
  <defs>
    <style>
      .cls-1 {
        fill: #eaf9fe;
        fill-rule: evenodd;
        filter: url(#filter);
      }
    </style>
    <filter id="filter" x="907.875" y="7254.09" width="23.125" height="19.91" filterUnits="userSpaceOnUse">
      <feOffset result="offset" dx="3.536" dy="3.536" in="SourceAlpha"/>
      <feGaussianBlur result="blur" stdDeviation="1.732"/>
      <feFlood result="flood" flood-color="#020303" flood-opacity="0.15"/>
      <feComposite result="composite" operator="in" in2="blur"/>
      <feBlend result="blend" in="SourceGraphic"/>
      <feGaussianBlur result="blur-2" stdDeviation="1" in="SourceAlpha"/>
      <feFlood result="flood-2" flood-color="#fff"/>
      <feComposite result="composite-2" operator="out" in2="blur-2"/>
      <feOffset result="offset-2" dy="1"/>
      <feComposite result="composite-3" operator="in" in2="SourceAlpha"/>
      <feBlend result="blend-2" in2="blend"/>
    </filter>
  </defs>
  <path id="twitter" class="cls-1" d="M923.638,7255.64a5.791,5.791,0,0,1-1.8.51,3.47,3.47,0,0,0,1.354-1.77,5.306,5.306,0,0,1-2.027.72h0a3.251,3.251,0,0,0-5.6,2.25,3.354,3.354,0,0,0,.082.73h0a9.02,9.02,0,0,1-6.7-3.38,3.257,3.257,0,0,0,.985,4.3,2.1,2.1,0,0,1-1.419-.37,3.128,3.128,0,0,0,2.507,3.18,2.467,2.467,0,0,1-1.353.1,3.07,3.07,0,0,0,2.9,2.21,5.746,5.746,0,0,1-4.685,1.35,9.67,9.67,0,0,0,5.083,1.44,9.03,9.03,0,0,0,9.093-9.5,0.134,0.134,0,0,1,0-.02c0-.01,0-0.03,0-0.04s0-.03,0-0.05A5.493,5.493,0,0,0,923.638,7255.64Z" transform="translate(-907.875 -7254.09)"/>
</svg>
